<svg width="24" height="24" viewBox="0 0 24 24" fill="none" xmlns="http://www.w3.org/2000/svg">
<path fill-rule="evenodd" clip-rule="evenodd" d="M20.6364 3.36361C20.9878 3.71508 20.9878 4.28493 20.6364 4.6364L4.63638 20.6364C4.28491 20.9879 3.71506 20.9879 3.36359 20.6364C3.01211 20.2849 3.01211 19.7151 3.36359 19.3636L5.37263 17.3546C3.88461 16.0129 2.80496 14.2248 2.34531 12.1992C2.31556 12.0681 2.31556 11.932 2.34531 11.8008C3.34575 7.39194 7.28735 4.10001 12 4.10001C13.894 4.10001 15.6657 4.63269 17.1709 5.55628L19.3636 3.36361C19.7151 3.01214 20.2849 3.01214 20.6364 3.36361ZM15.8537 6.8735C14.7081 6.25252 13.396 5.90001 12 5.90001C8.21753 5.90001 5.03874 8.49347 4.14855 12C4.5556 13.6033 5.44189 15.0174 6.64749 16.0797L8.68003 14.0472C8.31255 13.4522 8.09998 12.7505 8.09998 12C8.09998 9.8461 9.84607 8.10001 12 8.10001C12.7505 8.10001 13.4522 8.31257 14.0471 8.68006L15.8537 6.8735ZM12.7058 10.0213C12.4853 9.94272 12.2478 9.90001 12 9.90001C10.8402 9.90001 9.89998 10.8402 9.89998 12C9.89998 12.2478 9.94269 12.4854 10.0213 12.7059L12.7058 10.0213ZM18.7562 7.98659C19.1583 7.69438 19.7212 7.78346 20.0134 8.18555C20.7866 9.24954 21.3537 10.4744 21.6547 11.8008C21.6844 11.932 21.6844 12.0681 21.6547 12.1992C20.6542 16.6081 16.7126 19.9 12 19.9C11.0013 19.9 10.0356 19.7519 9.12453 19.4757C8.64884 19.3315 8.3801 18.829 8.52428 18.3533C8.66846 17.8777 9.17096 17.6089 9.64664 17.7531C10.3903 17.9785 11.1801 18.1 12 18.1C15.7824 18.1 18.9612 15.5065 19.8514 12C19.5958 10.9932 19.1513 10.0612 18.5573 9.24374C18.2651 8.84165 18.3542 8.27881 18.7562 7.98659Z" fill="white"/>
</svg>
