<svg width="24" height="24" viewBox="0 0 24 24" fill="none" xmlns="http://www.w3.org/2000/svg">
<path fill-rule="evenodd" clip-rule="evenodd" d="M12.4997 2.09996C11.0387 2.09646 9.59865 2.43934 8.29461 3.09801C6.73452 3.87829 5.42304 5.07535 4.50555 6.55895C3.58792 8.04277 3.10034 9.75381 3.0993 11.4984C3.0971 12.3423 3.21061 13.1786 3.43328 13.9867C3.66547 14.8294 3.77472 15.3577 3.80616 15.5097C3.81287 15.5421 3.81603 15.5574 3.8161 15.555C3.81371 15.6452 3.74245 15.9264 3.51922 16.5961L2.14617 20.7152C2.09326 20.8738 2.08557 21.044 2.12397 21.2067C2.16236 21.3695 2.24532 21.5183 2.36355 21.6365C2.48177 21.7547 2.63059 21.8377 2.79331 21.8761C2.95604 21.9145 3.12624 21.9068 3.28485 21.8539L7.40399 20.4808C8.07377 20.2576 8.35507 20.1863 8.44501 20.1839C8.44251 20.184 8.45814 20.1872 8.49127 20.1941C8.64458 20.2258 9.17258 20.3351 10.0134 20.5668C10.8216 20.7895 11.6578 20.903 12.5016 20.9007C14.2462 20.8997 15.9573 20.4121 17.4411 19.4945C18.9251 18.5768 20.1237 17.266 20.904 15.7054V15.7035C21.5625 14.3993 21.9038 12.9594 21.9001 11.4985V11.0004C21.8999 10.9841 21.8992 10.9678 21.8981 10.9516C21.7709 8.64622 20.7982 6.46692 19.1657 4.83434C17.5331 3.20175 15.3538 2.2291 13.0485 2.10191C13.0322 2.10081 13.0159 2.10014 12.9996 2.09991H12.5016L12.4997 2.09996ZM8.36302 9.36363C8.53188 9.19478 8.7609 9.09991 8.9997 9.09991H15.9997C16.2385 9.09991 16.4675 9.19478 16.6364 9.36363C16.8052 9.53249 16.9001 9.76151 16.9001 10.0003C16.9001 10.2391 16.8052 10.4681 16.6364 10.637C16.4675 10.8058 16.2385 10.9007 15.9997 10.9007H8.9997C8.7609 10.9007 8.53188 10.8058 8.36302 10.637C8.19417 10.4681 8.09931 10.2391 8.09931 10.0003C8.09931 9.76151 8.19417 9.53249 8.36302 9.36363ZM8.36302 13.3636C8.53188 13.1948 8.7609 13.0999 8.9997 13.0999H12.9997C13.2385 13.0999 13.4675 13.1948 13.6364 13.3636C13.8052 13.5325 13.9001 13.7615 13.9001 14.0003C13.9001 14.2391 13.8052 14.4681 13.6364 14.637C13.4675 14.8058 13.2385 14.9007 12.9997 14.9007H8.9997C8.7609 14.9007 8.53188 14.8058 8.36302 14.637C8.19417 14.4681 8.09931 14.2391 8.09931 14.0003C8.09931 13.7615 8.19417 13.5325 8.36302 13.3636Z" fill="black"/>
</svg>
