<svg width="24" height="24" viewBox="0 0 24 24" fill="none" xmlns="http://www.w3.org/2000/svg">
<path d="M6.93952 2.10001C6.0484 2.09997 5.29042 2.09994 4.68553 2.18126C4.0411 2.2679 3.43737 2.46142 2.94939 2.9494C2.4614 3.43739 2.26789 4.04112 2.18125 4.68554C2.09992 5.29043 2.09995 6.04836 2.09999 6.93949L2.1 7.00001C2.1 7.49707 2.50294 7.90001 3 7.90001H21C21.4971 7.90001 21.9 7.49707 21.9 7.00001V6.93954C21.9 6.04842 21.9001 5.29043 21.8187 4.68554C21.7321 4.04112 21.5386 3.43739 21.0506 2.9494C20.5626 2.46142 19.9589 2.2679 19.3145 2.18126C18.7096 2.09994 17.9516 2.09997 17.0605 2.10001H6.93952Z" fill="black"/>
<path d="M3 10.1C2.50294 10.1 2.1 10.503 2.1 11L2.09999 17.0605C2.09995 17.9516 2.09992 18.7096 2.18125 19.3145C2.26789 19.9589 2.4614 20.5626 2.94939 21.0506C3.43737 21.5386 4.0411 21.7321 4.68553 21.8188C5.29041 21.9001 6.04832 21.9 6.93943 21.9L7 21.9C7.49705 21.9 7.9 21.4971 7.9 21V11C7.9 10.503 7.49705 10.1 7 10.1H3Z" fill="black"/>
<path d="M11 10.1C10.503 10.1 10.1 10.503 10.1 11V21C10.1 21.4971 10.503 21.9 11 21.9L17.0605 21.9C17.9516 21.9 18.7096 21.9001 19.3145 21.8188C19.9589 21.7321 20.5626 21.5386 21.0506 21.0506C21.5386 20.5626 21.7321 19.9589 21.8188 19.3145C21.9001 18.7096 21.9 17.9517 21.9 17.0606L21.9 11C21.9 10.503 21.4971 10.1 21 10.1H11Z" fill="black"/>
</svg>
