<svg width="60" height="64" viewBox="0 0 60 64" fill="none" xmlns="http://www.w3.org/2000/svg">
<g clip-path="url(#clip0_698_3825)">
<path d="M55.7905 51.7387C55.3382 55.0648 53.0758 57.943 49.9084 59.222C48.3569 59.8609 46.6764 60.0533 44.9955 59.8609C43.3797 59.6693 41.7634 59.1576 40.083 58.1992C37.7556 56.9187 35.4285 54.937 32.7137 51.9949C36.9803 46.8146 39.5652 42.0819 40.5353 37.8616C40.9879 35.8787 41.0523 34.0879 40.8587 32.4248C40.6005 30.8262 40.0185 29.3547 39.1131 28.0758C37.1092 25.1981 33.7483 23.5351 29.999 23.5351C26.2497 23.5351 22.8885 25.2621 20.8846 28.0758C19.9792 29.3549 19.3982 30.8262 19.1392 32.4248C18.8809 34.0879 18.9454 35.9425 19.4626 37.8618C20.432 42.0816 23.0821 46.8786 27.2842 52.058C24.6339 55.0008 22.2421 56.9832 19.9148 58.2625C18.2343 59.222 16.618 59.7338 15.0023 59.9249C13.3365 60.1089 11.6506 59.8897 10.0895 59.286C6.92194 58.007 4.65999 55.1279 4.20718 51.8024C4.01359 50.2041 4.14273 48.6054 4.78913 46.8146C4.98273 46.1746 5.3064 45.5362 5.62913 44.7682C6.08194 43.7454 6.59921 42.6574 7.11577 41.5699L7.18093 41.4428C11.6406 31.913 16.4244 22.1922 21.4019 12.7274L21.5957 12.343C22.113 11.3846 22.6295 10.3617 23.1473 9.40197C23.6641 8.37843 24.2458 7.4189 24.9566 6.5869C26.3141 5.05183 28.1242 4.22052 30.1281 4.22052C32.132 4.22052 33.9419 5.05183 35.2994 6.58713C36.0105 7.4189 36.5922 8.37843 37.1094 9.4022C37.6267 10.3617 38.1433 11.3846 38.6605 12.343L38.8551 12.7274C43.7673 22.256 48.5512 31.9768 53.0113 41.5065V41.5699C53.5286 42.5934 53.9807 43.7454 54.498 44.7682C54.8214 45.5362 55.1444 46.1744 55.338 46.8146C55.8552 48.4772 56.049 50.0767 55.7908 51.7387H55.7905ZM29.999 48.7325C26.5087 44.3842 24.2458 40.2908 23.4702 36.8383C23.1475 35.367 23.0821 34.0879 23.2766 32.9366C23.4055 31.913 23.7939 31.0173 24.3102 30.2493C25.5386 28.5241 27.6069 27.4349 29.999 27.4349C32.3908 27.4349 34.5238 28.4591 35.6873 30.2493C36.2041 31.0173 36.5922 31.913 36.7213 32.9366C36.9151 34.0879 36.8505 35.4307 36.5275 36.8383C35.7519 40.2275 33.4893 44.3205 29.999 48.7325ZM59.1519 45.4073C58.829 44.6398 58.5055 43.8087 58.1826 43.1052C57.6653 41.9545 57.148 40.8665 56.6955 39.843L56.6308 39.7797C52.1711 30.186 47.3873 20.4652 42.3451 10.8735L42.1516 10.4886C41.6343 9.52927 41.117 8.50574 40.6005 7.48267C39.9536 6.3309 39.3069 5.11699 38.2731 3.96499C36.2038 1.40684 33.231 0 30.0632 0C26.8312 0 23.9226 1.40684 21.7891 3.83768C20.8199 4.98852 20.1088 6.20359 19.4624 7.35559C18.9451 8.37843 18.4279 9.40197 17.9109 10.3617L17.717 10.7443C12.7401 20.3374 7.89179 30.0589 3.4314 39.6519L3.36694 39.7797C2.91413 40.8025 2.39687 41.8894 1.8796 43.0414C1.53379 43.7994 1.2106 44.5672 0.91046 45.344C0.0697573 47.7097 -0.188524 49.9485 0.134445 52.2504C0.846007 57.0472 4.07804 61.0769 8.53819 62.867C10.2184 63.571 11.9638 63.8905 13.7741 63.8905C14.2912 63.8905 14.9376 63.8265 15.4548 63.7621C17.5876 63.5058 19.7854 62.8037 21.9182 61.5879C24.569 60.1171 27.0901 58.007 29.9341 54.937C32.778 58.007 35.3638 60.1173 37.9494 61.5879C40.083 62.8037 42.2805 63.5058 44.4135 63.7621C44.9308 63.8265 45.5772 63.8905 46.0942 63.8905C47.9043 63.8905 49.7139 63.571 51.3301 62.867C55.855 61.0769 59.0223 56.9834 59.7334 52.2504C60.2507 50.0116 59.9917 47.7744 59.1517 45.4071L59.1519 45.4073Z" fill="#E0565B"/>
</g>
<defs>
<clipPath id="clip0_698_3825">
<rect width="60" height="64" fill="white"/>
</clipPath>
</defs>
</svg>
