<svg width="24" height="24" viewBox="0 0 24 24" fill="none" xmlns="http://www.w3.org/2000/svg">
<path d="M6.93952 2.10001H17.0605C17.9516 2.09997 18.7096 2.09994 19.3145 2.18126C19.9589 2.2679 20.5626 2.46142 21.0506 2.9494C21.5386 3.43739 21.7321 4.04112 21.8187 4.68555C21.9001 5.29044 21.9 6.0484 21.9 6.93953V17.0605C21.9 17.9516 21.9001 18.7096 21.8187 19.3145C21.7321 19.9589 21.5386 20.5626 21.0506 21.0506C20.5626 21.5386 19.9589 21.7321 19.3145 21.8188C18.7096 21.9001 17.9516 21.9001 17.0605 21.9H6.93951C6.04838 21.9001 5.29042 21.9001 4.68553 21.8188C4.0411 21.7321 3.43737 21.5386 2.94939 21.0506C2.4614 20.5626 2.26789 19.9589 2.18125 19.3145C2.17254 19.2497 2.16477 19.1832 2.15783 19.115L7.50001 13.7728L9.36361 15.6364C9.71508 15.9879 10.2849 15.9879 10.6364 15.6364L16.1 10.1728V12C16.1 12.4971 16.503 12.9 17 12.9C17.4971 12.9 17.9 12.4971 17.9 12V8.00001C17.9 7.87755 17.8756 7.76081 17.8313 7.6544C17.7884 7.55119 17.7255 7.45434 17.6425 7.3698L17.6303 7.35756C17.5454 7.27426 17.4481 7.21116 17.3445 7.16827C17.2384 7.12429 17.122 7.10001 17 7.10001H13C12.503 7.10001 12.1 7.50295 12.1 8.00001C12.1 8.49706 12.503 8.90001 13 8.90001H14.8272L10 13.7272L8.1364 11.8636C7.78493 11.5121 7.21508 11.5121 6.86361 11.8636L2.09999 16.6272V6.93949C2.09995 6.04839 2.09992 5.29042 2.18125 4.68555C2.26789 4.04112 2.4614 3.43739 2.94939 2.9494C3.43737 2.46142 4.0411 2.2679 4.68553 2.18126C5.29041 2.09994 6.04842 2.09997 6.93952 2.10001Z" fill="black"/>
</svg>
