<svg width="24" height="24" viewBox="0 0 24 24" fill="none" xmlns="http://www.w3.org/2000/svg">
<path d="M2.09998 6.00004C2.09998 5.50298 2.50292 5.10004 2.99998 5.10004H21C21.497 5.10004 21.9 5.50298 21.9 6.00004C21.9 6.49709 21.497 6.90004 21 6.90004H2.99998C2.50292 6.90004 2.09998 6.49709 2.09998 6.00004Z" fill="black"/>
<path d="M2.09998 12C2.09998 11.503 2.50292 11.1 2.99998 11.1H21C21.497 11.1 21.9 11.503 21.9 12C21.9 12.4971 21.497 12.9 21 12.9H2.99998C2.50292 12.9 2.09998 12.4971 2.09998 12Z" fill="black"/>
<path d="M2.99998 17.1C2.50292 17.1 2.09998 17.503 2.09998 18C2.09998 18.4971 2.50292 18.9 2.99998 18.9L21 18.9C21.497 18.9 21.9 18.4971 21.9 18C21.9 17.503 21.497 17.1 21 17.1L2.99998 17.1Z" fill="black"/>
</svg>
