<svg width="24" height="24" viewBox="0 0 24 24" fill="none" xmlns="http://www.w3.org/2000/svg">
<path d="M8.00001 3.10001C4.18924 3.10001 1.10001 6.18924 1.10001 10C1.10001 13.8108 4.18924 16.9 8.00001 16.9H9.15817C9.1198 16.6054 9.1 16.305 9.1 16C9.1 12.1892 12.1892 9.10001 16 9.10001C18.7356 9.10001 21.0994 10.692 22.2155 13C22.6541 12.0929 22.9 11.0752 22.9 10C22.9 6.18924 19.8108 3.10001 16 3.10001H8.00001Z" fill="black"/>
<path fill-rule="evenodd" clip-rule="evenodd" d="M16 11.1C13.2938 11.1 11.1 13.2938 11.1 16C11.1 18.7062 13.2938 20.9 16 20.9C17.0279 20.9 17.9819 20.5835 18.7698 20.0426L21.3636 22.6364C21.7151 22.9879 22.2849 22.9879 22.6364 22.6364C22.9879 22.2849 22.9879 21.7151 22.6364 21.3636L20.0426 18.7698C20.5835 17.9819 20.9 17.0279 20.9 16C20.9 13.2938 18.7062 11.1 16 11.1ZM18.6364 14.3636C18.9879 14.7151 18.9879 15.2849 18.6364 15.6364L16.1364 18.1364C15.9676 18.3052 15.7387 18.4 15.5 18.4C15.2613 18.4 15.0324 18.3052 14.8636 18.1364L13.3636 16.6364C13.0121 16.2849 13.0121 15.7151 13.3636 15.3636C13.7151 15.0121 14.2849 15.0121 14.6364 15.3636L15.5 16.2272L17.3636 14.3636C17.7151 14.0121 18.2849 14.0121 18.6364 14.3636Z" fill="black"/>
</svg>
