<svg width="64" height="64" viewBox="0 0 64 64" fill="none" xmlns="http://www.w3.org/2000/svg">
<g clip-path="url(#clip0_704_3955)">
<path d="M19.6 39.5495C19.616 40.3868 19.8827 42.0082 20.2827 43.2775C21.1462 46.0084 22.596 48.5176 24.5307 50.6295C26.6055 52.9107 29.1379 54.7289 31.9627 55.9655C35.037 57.3207 38.3629 58.0114 41.7227 57.9922C45.0819 57.9988 48.4048 57.2973 51.4747 55.9335C54.2974 54.6852 56.8274 52.8593 58.9013 50.5735C60.8328 48.4546 62.2813 45.9416 63.1467 43.2082C63.9788 40.5599 64.2066 37.7588 63.8133 35.0108C63.4389 32.3782 62.5159 29.8535 61.104 27.6002C59.796 25.504 58.1234 23.6589 56.1653 22.1522H56.1707L36.176 6.80017L36.1227 6.76017C34.8107 5.75217 32.6053 5.75751 31.1627 6.76551C29.704 7.78417 29.5387 9.47217 30.8347 10.5388L30.832 10.5415L39.168 17.3228L13.7547 17.3495H13.72C11.6187 17.3522 9.59999 18.7308 9.19999 20.4748C8.78933 22.2482 10.2133 23.7202 12.4 23.7282V23.7335L25.28 23.7068L2.29333 41.3522L2.20266 41.4188C0.0346597 43.0775 -0.664007 45.8402 0.701327 47.5868C2.08799 49.3655 5.03466 49.3682 7.22666 47.5975L19.7707 37.3335C19.7707 37.3335 19.584 38.7202 19.6 39.5495ZM51.84 44.1922C49.2533 46.8268 45.6373 48.3202 41.72 48.3255C37.8 48.3362 34.1813 46.8535 31.5947 44.2242C30.3733 42.998 29.4309 41.5226 28.832 39.8988C28.2831 38.3711 28.0662 36.7439 28.1959 35.1257C28.3256 33.5076 28.7988 31.9357 29.584 30.5148C30.3651 29.1104 31.4089 27.8692 32.6587 26.8588C35.1707 24.8108 38.368 23.7042 41.7147 23.6988C45.064 23.6935 48.2613 24.7922 50.776 26.8322C52.056 27.8748 53.096 29.1095 53.848 30.4775C54.6264 31.8793 55.1007 33.4295 55.24 35.0268C55.3813 36.6638 55.1638 38.3119 54.6027 39.8562C54.0036 41.4824 53.0597 42.961 51.84 44.1922Z" fill="#EA7600"/>
<path d="M33.36 35.2375C33.4826 33.1041 34.528 31.2215 36.1066 29.8881C37.763 28.5124 39.8522 27.7662 42.0053 27.7815C44.272 27.7815 46.3546 28.5815 47.9013 29.8881C49.48 31.2215 50.5226 33.1041 50.6426 35.2348C50.7626 37.4295 49.8826 39.4641 48.336 40.9761C46.6324 42.6031 44.3609 43.5006 42.0053 43.4775C39.6481 43.5009 37.3748 42.6035 35.6693 40.9761C34.1226 39.4641 33.24 37.4295 33.36 35.2375Z" fill="#265787"/>
</g>
<defs>
<clipPath id="clip0_704_3955">
<rect width="64" height="64" fill="white"/>
</clipPath>
</defs>
</svg>
