<svg width="60" height="70" viewBox="0 0 60 70" fill="none" xmlns="http://www.w3.org/2000/svg">
<g clip-path="url(#clip0_698_3815)">
<path d="M18.3724 0.199313C18.029 0.201508 17.6915 0.288546 17.3904 0.452569C16.4018 0.99629 16.0392 2.25652 16.587 3.23675L18.8189 7.23583C13.4414 10.537 9.8782 16.1761 9.8782 22.6121V23.8079C8.84531 22.6289 7.32727 21.8844 5.63109 21.8844C2.52328 21.8844 0 24.3882 0 27.4716V44.683C0 47.7663 2.52352 50.2703 5.63109 50.2703C7.32727 50.2703 8.84531 49.5256 9.87797 48.3465V50.7575C9.87797 54.0079 12.5585 56.6675 15.8344 56.6675H17.3456V64.324C17.3456 67.4077 19.8691 69.9114 22.9767 69.9114C26.0843 69.9114 28.6076 67.4075 28.6076 64.324V56.6675H31.2223V64.324C31.2223 67.4077 33.7458 69.9114 36.8534 69.9114C39.9609 69.9114 42.4842 67.4075 42.4842 64.324V56.6675H43.9957C47.2713 56.6675 49.9519 54.0079 49.9519 50.7575V48.3465C50.9845 49.5256 52.5028 50.2703 54.199 50.2703C57.3066 50.2703 59.8298 47.7663 59.8298 44.683V27.4716C59.8298 24.3882 57.3066 21.8844 54.199 21.8844C52.5028 21.8844 50.9845 22.6289 49.9519 23.8079V22.8144V22.7575C49.9523 22.697 49.9519 22.6486 49.9519 22.6121C49.9519 16.1772 46.3805 10.5437 41.0048 7.24234L43.2431 3.23675C43.7906 2.25652 43.4283 0.99629 42.4397 0.452569C42.1386 0.288546 41.8011 0.201508 41.4577 0.199313C40.7276 0.192336 40.0111 0.574197 39.6338 1.24978L37.2933 5.44513C35.0048 4.60722 32.5148 4.14792 29.9152 4.14792C27.3178 4.14792 24.8231 4.60234 22.5366 5.43862L20.1963 1.24978C19.8188 0.574197 19.1025 0.192801 18.3724 0.199313Z" fill="white"/>
<path d="M5.63118 23.3398C3.31228 23.3398 1.46704 25.1708 1.46704 27.4717V44.6831C1.46704 46.984 3.31228 48.815 5.63118 48.815C7.95009 48.815 9.79556 46.984 9.79556 44.6831V27.4717C9.79556 25.1708 7.95009 23.3398 5.63118 23.3398ZM54.1993 23.3398C51.8802 23.3398 50.0349 25.1708 50.0349 27.4717V44.6831C50.0349 46.984 51.8802 48.815 54.1993 48.815C56.5182 48.815 58.3634 46.984 58.3634 44.6831V27.4717C58.3634 25.1708 56.5182 23.3398 54.1993 23.3398Z" fill="#A4C639"/>
<path d="M22.977 42.981C20.6581 42.981 18.8126 44.8119 18.8126 47.1131V64.3242C18.8126 66.6251 20.6581 68.4561 22.977 68.4561C25.2959 68.4561 27.1411 66.6251 27.1411 64.3242V47.1131C27.1411 44.8119 25.2959 42.981 22.977 42.981ZM36.8536 42.981C34.5345 42.981 32.6893 44.8119 32.6893 47.1131V64.3242C32.6893 66.6251 34.5345 68.4561 36.8536 68.4561C39.1725 68.4561 41.0178 66.6251 41.0178 64.3242V47.1131C41.0178 44.8119 39.1725 42.981 36.8536 42.981Z" fill="#A4C639"/>
<path d="M18.385 1.65535C18.2865 1.65653 18.19 1.68263 18.1045 1.73117C17.8075 1.89442 17.71 2.23303 17.8748 2.52838L20.8085 7.78675C15.1647 10.7007 11.3524 16.2381 11.3449 22.5935H48.4851C48.4774 16.2381 44.6653 10.7005 39.0215 7.78675L41.9549 2.52861C42.1199 2.23326 42.0222 1.89442 41.7253 1.73117C41.6398 1.6826 41.5432 1.6565 41.4447 1.65535C41.2338 1.65303 41.0343 1.75768 40.9218 1.95908L37.9499 7.27419C35.519 6.20442 32.7923 5.60373 29.9149 5.60373C27.0374 5.60373 24.311 6.20419 21.8798 7.27419L18.9079 1.95908C18.8572 1.86578 18.7817 1.7881 18.6895 1.73453C18.5973 1.68097 18.4921 1.65358 18.3853 1.65535H18.385ZM11.3449 24.0488V50.7581C11.3436 51.3435 11.4589 51.9233 11.684 52.4643C11.9092 53.0053 12.2398 53.4969 12.657 53.9108C13.0741 54.3247 13.5695 54.6527 14.1148 54.8761C14.66 55.0995 15.2444 55.2138 15.8343 55.2126H43.9956C44.5856 55.2138 45.1699 55.0995 45.7152 54.8761C46.2605 54.6527 46.7559 54.3246 47.1731 53.9107C47.5902 53.4968 47.9208 53.0052 48.146 52.4641C48.3712 51.9231 48.4864 51.3433 48.4851 50.7579V24.0491H11.3449V24.0488Z" fill="#A4C639"/>
<path d="M21.344 12.7729C20.4963 12.7729 19.7943 13.4692 19.7943 14.3104C19.7943 15.1518 20.4963 15.8481 21.344 15.8481C22.192 15.8481 22.8937 15.1518 22.8937 14.3104C22.8937 13.4692 22.192 12.7729 21.344 12.7729ZM38.4857 12.7729C37.6377 12.7729 36.936 13.4692 36.936 14.3104C36.936 15.1518 37.6377 15.8481 38.4857 15.8481C39.3334 15.8481 40.0354 15.1518 40.0354 14.3104C40.0354 13.4692 39.3334 12.7729 38.4857 12.7729Z" fill="white"/>
</g>
<defs>
<clipPath id="clip0_698_3815">
<rect width="60" height="70" fill="white"/>
</clipPath>
</defs>
</svg>
