<svg width="72" height="60" viewBox="0 0 72 60" fill="none" xmlns="http://www.w3.org/2000/svg">
<g clip-path="url(#clip0_698_3821)">
<path d="M36.0845 0C16.7795 0 1.655 24.6 0.223999 45.3775C6.28212 55.9079 20.8911 59.8662 36.0851 59.8662C51.2779 59.8662 65.8877 55.9079 71.9427 45.3772C70.5115 24.6 55.3889 0 36.0848 0" fill="#B6DEFF"/>
<path d="M66.8981 40.4282C66.8981 40.4282 62.6343 31.1956 58.3006 25.8091C53.9637 20.4203 48.6675 14.5527 45.536 14.5527C42.4063 14.5527 33.6572 30.0677 29.6434 30.0677C25.6289 30.0677 23.5426 23.0344 18.6069 23.0344C13.6693 23.0344 5.82465 39.9947 5.82465 39.9947L5.29309 42.8699C5.29309 42.8699 8.0184 54.9716 36.5298 54.9716C65.0424 54.9716 67.3211 43.0685 67.3211 43.0685L66.8984 40.4279" fill="#66CC66"/>
<path d="M30.0903 36.6886C25.6623 36.6886 23.3923 32.3128 22.1615 29.6117C21.0548 27.1784 20.8633 23.3368 17.7231 23.2291C18.0317 23.1066 18.3287 23.0342 18.6071 23.0342C23.5428 23.0342 25.6291 30.0675 29.6436 30.0675C33.6574 30.0675 42.4065 14.5522 45.5362 14.5522C46.126 14.5522 46.7903 14.7607 47.5112 15.1314C46.9779 15.061 46.2942 15.11 45.7674 15.6393C44.7558 16.6528 35.5721 36.6886 30.0903 36.6886Z" fill="#17AD49"/>
</g>
<defs>
<clipPath id="clip0_698_3821">
<rect width="72" height="60" fill="white"/>
</clipPath>
</defs>
</svg>
