<svg width="150" height="60" viewBox="0 0 150 60" fill="none" xmlns="http://www.w3.org/2000/svg">
<g clip-path="url(#clip0_698_3827)">
<path d="M0 0V4.10107H29.1973V0H0ZM33.334 0V4.10107H74.9414C74.9414 4.10107 70.6913 0 65.0625 0H33.334ZM83.1035 0V4.10107H108.275L106.781 0H83.1035ZM126.322 0L124.828 4.10107H149.771V0H126.322ZM0 7.97561V12.0767H29.1973V7.97561H0ZM33.334 7.98146V12.0767H79.7695C79.7695 12.0767 79.2272 8.92039 78.2812 7.98146H33.334ZM83.1035 7.98146V12.0767H111.035L109.652 7.98146H83.1035ZM123.334 7.98146L121.951 12.0767H149.771V7.98146H123.334ZM8.39062 15.9512V20.0576H21.0352V15.9512H8.39062ZM41.7246 15.9512V20.0576H54.3691V15.9512H41.7246ZM66.668 15.9512V20.0576H79.3125C79.3125 20.0576 80.1152 17.8888 80.1152 15.9509H66.668V15.9512ZM91.4941 15.9512V20.0576H113.912L112.418 15.9509H91.4941V15.9512ZM120.58 15.9512L119.08 20.0579H141.609V15.9512H120.58ZM8.39062 23.9327V28.0332H21.0352V23.9327H8.39062ZM41.7246 23.9327V28.0332H74.0215C74.0215 28.0332 76.7232 25.9288 77.584 23.9321H41.7246V23.9327ZM91.4941 23.9327V28.0332H104.139V25.7502L104.941 28.0332H128.104L128.965 25.7502V28.0332H141.609V23.9327H117.873L116.613 27.4065L115.348 23.9327H91.4941ZM8.39062 31.9077V36.0088H21.0352V31.9077H8.39062ZM41.7246 31.9077V36.0088H77.584C76.723 34.0185 74.0215 31.9077 74.0215 31.9077H41.7246ZM91.4941 31.9077V36.0088H104.139V31.9077H91.4941ZM106.436 31.9077L107.965 36.0088H125.332L126.785 31.9077H106.436ZM128.965 31.9077V36.0088H141.609V31.9077H128.965ZM8.39062 39.8833V43.9844H21.0352V39.8833H8.39062ZM41.7246 39.8833V43.9844H54.3691V39.8833H41.7246ZM66.668 39.8833V43.9844H80.1152C80.1152 42.0489 79.3125 39.8833 79.3125 39.8833H66.668ZM91.4941 39.8833V43.9844H104.139V39.8833H91.4941ZM109.307 39.8833L110.789 43.9844H122.432L123.926 39.8833H109.307ZM128.965 39.8833V43.9844H141.609V39.8833H128.965ZM0.228516 47.8592V51.9659H29.4258V47.8589H0.228516V47.8592ZM33.334 47.8592V51.9659H78.2812C79.2272 51.0255 79.7695 47.8589 79.7695 47.8589H33.334V47.8592ZM83.332 47.8592V51.9659H104.139V47.8589H83.332V47.8592ZM112.184 47.8592L113.707 51.9659H119.631L121.061 47.8589H112.184V47.8592ZM128.965 47.8592V51.9659H150V47.8589H128.965V47.8592ZM0.228516 55.8404V59.9415H29.4258V55.8404H0.228516ZM33.334 55.8404V59.9353H65.0625C70.6913 59.9353 74.9414 55.8401 74.9414 55.8401H33.334V55.8404ZM83.332 55.8404V59.9415H104.139V55.8404H83.332ZM115.072 55.8404L116.537 59.9295L116.789 59.9353L118.277 55.8401H115.072V55.8404ZM128.965 55.8404V59.9415H150V55.8404H128.965Z" fill="#1F70C1"/>
</g>
<defs>
<clipPath id="clip0_698_3827">
<rect width="150" height="60" fill="white"/>
</clipPath>
</defs>
</svg>
