<svg width="24" height="24" viewBox="0 0 24 24" fill="none" xmlns="http://www.w3.org/2000/svg">
<path d="M19.6364 5.6364C19.9878 5.28493 19.9878 4.71508 19.6364 4.36361C19.2849 4.01214 18.7151 4.01214 18.3636 4.36361L12 10.7272L5.63637 4.36361C5.2849 4.01214 4.71505 4.01214 4.36358 4.36361C4.01211 4.71508 4.01211 5.28493 4.36358 5.6364L10.7272 12L4.36358 18.3636C4.01211 18.7151 4.01211 19.2849 4.36358 19.6364C4.71505 19.9879 5.2849 19.9879 5.63637 19.6364L12 13.2728L18.3636 19.6364C18.7151 19.9879 19.2849 19.9879 19.6364 19.6364C19.9878 19.2849 19.9878 18.7151 19.6364 18.3636L13.2728 12L19.6364 5.6364Z" fill="black"/>
</svg>
