<svg width="24" height="24" viewBox="0 0 24 24" fill="none" xmlns="http://www.w3.org/2000/svg">
<path fill-rule="evenodd" clip-rule="evenodd" d="M6.9395 2.09998C6.9596 2.09998 6.97975 2.09998 6.99998 2.09998L17.0605 2.09998C17.9516 2.09994 18.7095 2.0999 19.3144 2.18123C19.9589 2.26787 20.5626 2.46138 21.0506 2.94937C21.5386 3.43735 21.7321 4.04109 21.8187 4.68551C21.9001 5.29041 21.9 6.04836 21.9 6.93951V17.0604C21.9 17.9516 21.9001 18.7095 21.8187 19.3144C21.7321 19.9589 21.5386 20.5626 21.0506 21.0506C20.5626 21.5386 19.9589 21.7321 19.3144 21.8187C18.7095 21.9001 17.9516 21.9 17.0604 21.9H6.93951C6.04836 21.9 5.29041 21.9001 4.68551 21.8187C4.04109 21.7321 3.43735 21.5386 2.94937 21.0506C2.46138 20.5626 2.26787 19.9589 2.18123 19.3144C2.0999 18.7095 2.09994 17.9516 2.09998 17.0605L2.09998 6.99998C2.09998 6.97975 2.09998 6.9596 2.09998 6.9395C2.09994 6.04836 2.0999 5.29041 2.18123 4.68551C2.26787 4.04109 2.46138 3.43735 2.94937 2.94937C3.43735 2.46138 4.04109 2.26787 4.68551 2.18123C5.29041 2.0999 6.04836 2.09994 6.9395 2.09998ZM4.92536 3.96518C4.48053 4.02498 4.31996 4.12436 4.22216 4.22216C4.12436 4.31996 4.02498 4.48053 3.96518 4.92536C3.90189 5.39608 3.89998 6.03173 3.89998 6.99998V17C3.89998 17.9682 3.90189 18.6039 3.96518 19.0746C4.02498 19.5194 4.12436 19.68 4.22216 19.7778C4.31996 19.8756 4.48053 19.975 4.92536 20.0348C5.39608 20.0981 6.03173 20.1 6.99998 20.1H17C17.9682 20.1 18.6039 20.0981 19.0746 20.0348C19.5194 19.975 19.68 19.8756 19.7778 19.7778C19.8756 19.68 19.975 19.5194 20.0348 19.0746C20.0981 18.6039 20.1 17.9682 20.1 17V6.99998C20.1 6.03173 20.0981 5.39608 20.0348 4.92536C19.975 4.48053 19.8756 4.31996 19.7778 4.22216C19.68 4.12436 19.5194 4.02498 19.0746 3.96518C18.6039 3.90189 17.9682 3.89998 17 3.89998H6.99998C6.03173 3.89998 5.39608 3.90189 4.92536 3.96518Z" fill="white"/>
</svg>
