<svg width="24" height="24" viewBox="0 0 24 24" fill="none" xmlns="http://www.w3.org/2000/svg">
<path fill-rule="evenodd" clip-rule="evenodd" d="M6.93951 2.1H17.0605C17.9516 2.09996 18.7096 2.09993 19.3144 2.18125C19.9589 2.2679 20.5626 2.46141 21.0506 2.9494C21.5386 3.43738 21.7321 4.04111 21.8187 4.68554C21.9001 5.29043 21.9 6.04839 21.9 6.93952V17.0605C21.9 17.9516 21.9001 18.7096 21.8187 19.3145C21.7321 19.9589 21.5386 20.5626 21.0506 21.0506C20.5626 21.5386 19.9589 21.7321 19.3144 21.8188C18.7096 21.9001 17.9516 21.9 17.0605 21.9H6.93949C6.04836 21.9 5.29041 21.9001 4.68552 21.8188C4.04109 21.7321 3.43736 21.5386 2.94937 21.0506C2.46139 20.5626 2.26787 19.9589 2.18123 19.3145C2.09991 18.7096 2.09994 17.9516 2.09998 17.0605V6.93948C2.09994 6.04838 2.09991 5.29042 2.18123 4.68554C2.26787 4.04111 2.46139 3.43738 2.94937 2.9494C3.43736 2.46141 4.04109 2.2679 4.68552 2.18125C5.29039 2.09993 6.04841 2.09996 6.93951 2.1ZM17.1364 10.1364C17.4878 9.78492 17.4878 9.21508 17.1364 8.8636C16.7849 8.51213 16.2151 8.51213 15.8636 8.8636L10.5 14.2272L7.63637 11.3636C7.2849 11.0121 6.71505 11.0121 6.36358 11.3636C6.01211 11.7151 6.01211 12.2849 6.36358 12.6364L9.86358 16.1364C10.2151 16.4879 10.7849 16.4879 11.1364 16.1364L17.1364 10.1364Z" fill="black"/>
</svg>
