<svg width="24" height="24" viewBox="0 0 24 24" fill="none" xmlns="http://www.w3.org/2000/svg">
<path fill-rule="evenodd" clip-rule="evenodd" d="M12 8.10001C9.84607 8.10001 8.09998 9.8461 8.09998 12C8.09998 14.1539 9.84607 15.9 12 15.9C14.1539 15.9 15.9 14.1539 15.9 12C15.9 9.8461 14.1539 8.10001 12 8.10001ZM9.89997 12C9.89997 10.8402 10.8402 9.90001 12 9.90001C13.1598 9.90001 14.1 10.8402 14.1 12C14.1 13.1598 13.1598 14.1 12 14.1C10.8402 14.1 9.89997 13.1598 9.89997 12Z" fill="white"/>
<path fill-rule="evenodd" clip-rule="evenodd" d="M12 4.10001C7.28735 4.10001 3.34575 7.39194 2.34531 11.8008C2.31556 11.932 2.31556 12.0681 2.34531 12.1992C3.34575 16.6081 7.28735 19.9 12 19.9C16.7126 19.9 20.6542 16.6081 21.6547 12.1992C21.6844 12.0681 21.6844 11.932 21.6547 11.8008C20.6542 7.39194 16.7126 4.10001 12 4.10001ZM12 18.1C8.21752 18.1 5.03873 15.5065 4.14855 12C5.03873 8.49347 8.21752 5.90001 12 5.90001C15.7824 5.90001 18.9612 8.49347 19.8514 12C18.9612 15.5065 15.7824 18.1 12 18.1Z" fill="white"/>
</svg>
